<?xml version="1.0" encoding="UTF-8"?>
<!-- Generated by Pixelmator Pro 3.3.5 -->
<svg width="4128" height="1028" viewBox="0 0 4128 1028" xmlns="http://www.w3.org/2000/svg">
    <path id="Path" fill="#a8a67a" fill-rule="evenodd" stroke="none" d="M 81.112999 878.5 C 81.112999 913.846008 109.766998 942.5 145.113007 942.5 L 877.112 942.5 C 912.458008 942.5 941.112 913.846008 941.112 878.5 L 941.112 149.5 C 941.112 114.153992 912.458008 85.5 877.112 85.5 L 145.112 85.5 C 109.766998 85.5 81.112 114.153992 81.112 149.5 L 81.112 878.5 L 81.112999 878.5 Z"/>
    <path id="path1" fill="#96c8a2" fill-rule="evenodd" stroke="none" d="M 483.112 514 C 483.112 419.006958 406.105011 342 311.112 342 C 216.119995 342 139.112 419.006958 139.112 514 C 139.112 608.992981 216.119995 686 311.112 686 C 406.105011 686 483.112 608.992981 483.112 514 Z"/>
    <path id="path2" fill="#575757" fill-rule="evenodd" stroke="none" d="M 884.112 514 C 884.112 419.006958 807.10498 342 712.112 342 C 617.119019 342 540.112 419.006958 540.112 514 C 540.112 608.992981 617.119019 686 712.112 686 C 807.10498 686 884.112 608.992981 884.112 514 Z"/>
    <path id="path3" fill="#575757" stroke="none" d="M 1172.209961 727.642029 C 1145.329956 727.642029 1122.930054 720.921997 1105.01001 706.921997 C 1087.089966 694.041992 1073.650024 676.122009 1064.689941 653.721985 C 1055.72998 631.882019 1051.25 607.802002 1051.25 581.481995 C 1051.25 554.60199 1056.290039 529.961975 1065.810059 508.122009 C 1075.329956 486.281982 1089.329956 468.921997 1107.25 456.60199 C 1125.72998 444.281982 1147.569946 437.562012 1172.77002 437.562012 C 1192.930054 437.562012 1210.290039 441.481995 1225.410034 449.322021 C 1240.530029 457.161987 1251.72998 465.562012 1260.130005 475.641968 L 1264.609985 475.641968 L 1264.050049 311.562012 L 1300.449951 306.521973 L 1300.449951 721.481995 L 1268.530029 721.481995 L 1266.849976 682.84198 L 1262.930054 683.401978 C 1251.72998 697.401978 1238.290039 708.041992 1223.170044 715.882019 C 1208.609985 723.721985 1191.25 727.642029 1172.209961 727.642029 Z M 1181.170044 694.041992 C 1200.209961 694.041992 1216.449951 689.562012 1229.890015 681.161987 C 1243.329956 672.202026 1254.530029 660.442017 1264.050049 644.762024 L 1264.050049 513.721985 C 1254.530029 499.721985 1242.77002 489.082031 1228.209961 481.802002 C 1213.650024 475.082031 1197.969971 471.161987 1181.72998 471.161987 C 1160.449951 471.161987 1143.089966 476.202026 1129.089966 486.281982 C 1115.650024 496.362 1105.01001 509.802002 1098.290039 526.60199 C 1091.569946 543.401978 1088.209961 561.882019 1088.209961 582.041992 C 1088.209961 601.642029 1091.569946 619.562012 1098.290039 636.921997 C 1104.449951 653.721985 1114.530029 667.721985 1127.969971 678.362 C 1141.969971 689.002014 1159.329956 694.041992 1181.170044 694.041992 Z M 1472.930054 727.642029 C 1442.689941 727.642029 1418.050049 720.362 1397.329956 706.921997 C 1376.609985 693.481995 1361.48999 675.562012 1350.849976 653.161987 C 1340.209961 630.762024 1334.609985 606.682007 1334.609985 580.921997 C 1334.609985 553.481995 1340.209961 528.84198 1351.410034 507.002014 C 1362.609985 485.721985 1378.849976 468.362 1399.569946 456.041992 C 1420.290039 443.721985 1444.369995 437.562012 1472.369995 437.562012 C 1500.369995 437.562012 1525.01001 444.281982 1545.72998 456.60199 C 1565.890015 469.481995 1581.569946 486.281982 1592.209961 508.122009 C 1602.849976 529.401978 1608.449951 554.041992 1608.449951 580.921997 C 1608.449951 608.362 1602.849976 633.002014 1591.650024 655.401978 C 1580.449951 677.242004 1564.77002 694.60199 1544.609985 708.041992 C 1524.449951 720.921997 1500.369995 727.08197 1472.369995 727.08197 L 1472.930054 727.642029 Z M 1472.930054 695.161987 C 1495.329956 695.161987 1513.810059 690.122009 1528.369995 678.921997 C 1542.930054 668.281982 1553.569946 654.281982 1560.849976 636.921997 C 1568.689941 619.562012 1572.050049 601.08197 1572.050049 581.481995 C 1572.050049 548.442017 1563.089966 521.562012 1545.170044 501.401978 C 1527.25 481.242004 1503.170044 471.161987 1472.930054 471.161987 C 1451.089966 471.161987 1432.609985 475.641968 1417.48999 485.721985 C 1402.369995 495.802002 1391.170044 508.682007 1383.329956 525.481995 C 1376.050049 542.281982 1372.130005 560.762024 1372.130005 581.481995 C 1372.130005 601.08197 1376.050049 619.562012 1383.329956 636.921997 C 1390.609985 654.281982 1401.810059 668.281982 1416.930054 679.481995 C 1432.050049 690.122009 1450.530029 695.161987 1472.930054 695.161987 Z M 1651.569946 721.482971 L 1651.01001 443.723022 L 1683.48999 441.483032 L 1684.609985 493.562988 L 1689.089966 494.122986 C 1694.689941 485.723022 1702.530029 477.322998 1712.050049 468.363037 C 1721.01001 459.963013 1732.209961 452.682983 1745.089966 446.52301 C 1758.530029 440.922974 1773.089966 437.562988 1790.449951 437.562988 C 1820.130005 437.562988 1841.969971 446.52301 1855.410034 463.322998 C 1868.849976 480.682983 1875.01001 505.322998 1875.01001 537.242981 L 1875.569946 721.482971 L 1839.170044 721.482971 L 1839.170044 545.083008 C 1839.170044 521.002991 1834.689941 503.083008 1826.290039 490.763 C 1817.890015 478.442993 1802.209961 472.843018 1779.810059 472.843018 C 1759.089966 472.843018 1741.170044 478.442993 1726.050049 490.763 C 1710.930054 502.52301 1698.050049 517.083008 1687.410034 533.882996 L 1687.410034 721.482971 L 1651.569946 721.482971 Z M 1996.25 727.083008 C 1970.48999 727.083008 1950.329956 719.802979 1935.209961 705.802979 C 1920.089966 691.802979 1912.25 672.203003 1912.25 647.562988 C 1912.25 627.963013 1917.290039 612.28302 1926.25 600.52301 C 1935.77002 588.763 1946.969971 580.362976 1960.969971 574.763 C 1974.969971 568.603027 1988.410034 564.682983 2001.849976 561.882996 L 2092.570068 545.643005 C 2093.689941 524.362976 2090.889893 508.122986 2084.72998 497.483032 C 2078.570068 486.843018 2070.169922 479.562988 2060.090088 475.643005 C 2048.889893 472.282959 2037.130005 470.603027 2024.25 470.603027 C 2011.930054 470.603027 1997.369995 472.282959 1981.130005 475.643005 C 1965.449951 479.002991 1946.969971 485.162964 1926.810059 494.122986 L 1924.569946 459.403015 C 1938.01001 453.802979 1954.25 449.322998 1973.849976 444.843018 C 1992.890015 439.802979 2011.930054 437.562988 2030.969971 437.562988 C 2060.649902 437.562988 2084.169922 445.403015 2101.530029 459.963013 C 2118.889893 475.083008 2127.290039 499.162964 2127.290039 532.203003 L 2127.850098 721.482971 L 2094.810059 721.482971 L 2093.129883 680.04303 L 2088.649902 680.603027 C 2079.689941 692.362976 2067.370117 703.002991 2051.129883 712.52301 C 2034.890015 722.04303 2016.969971 727.083008 1996.25 727.083008 Z M 2005.209961 695.723022 C 2021.449951 695.723022 2037.130005 690.682983 2053.370117 681.163025 C 2069.050049 671.643005 2081.929932 657.083008 2092.01001 636.362976 L 2092.01001 568.603027 C 2088.649902 570.843018 2084.72998 572.52301 2079.129883 574.203003 C 2074.090088 575.882996 2066.25 578.122986 2056.169922 580.362976 C 2045.530029 582.603027 2030.969971 585.403015 2011.930054 588.763 C 1994.569946 592.122986 1979.449951 598.28302 1967.689941 606.682983 C 1955.369995 615.643005 1949.209961 629.083008 1949.209961 646.442993 C 1949.209961 664.362976 1954.810059 677.242981 1965.449951 684.52301 C 1976.089966 691.802979 1989.530029 695.723022 2005.209961 695.723022 Z M 2184.689941 721.482971 L 2184.129883 311.562988 L 2220.530029 306.52301 L 2220.530029 721.482971 L 2184.129883 721.482971 L 2184.689941 721.482971 Z M 2384.330078 727.642029 C 2357.449951 727.642029 2335.050049 720.921997 2317.129883 706.921997 C 2299.209961 694.041992 2285.77002 676.122009 2276.810059 653.721985 C 2267.850098 631.882019 2263.370117 607.802002 2263.370117 581.481995 C 2263.370117 554.60199 2268.409912 529.961975 2277.929932 508.122009 C 2287.449951 486.281982 2301.449951 468.921997 2319.370117 456.60199 C 2337.850098 444.281982 2359.689941 437.562012 2384.889893 437.562012 C 2405.050049 437.562012 2422.409912 441.481995 2437.530029 449.322021 C 2452.649902 457.161987 2463.850098 465.562012 2472.25 475.641968 L 2476.72998 475.641968 L 2476.169922 311.562012 L 2512.570068 306.521973 L 2512.570068 721.481995 L 2480.649902 721.481995 L 2478.969971 682.84198 L 2475.050049 683.401978 C 2463.850098 697.401978 2450.409912 708.041992 2435.290039 715.882019 C 2420.72998 723.721985 2403.370117 727.642029 2384.330078 727.642029 Z M 2393.290039 694.041992 C 2412.330078 694.041992 2428.570068 689.562012 2442.01001 681.161987 C 2455.449951 672.202026 2466.649902 660.442017 2476.169922 644.762024 L 2476.169922 513.721985 C 2466.649902 499.721985 2454.889893 489.082031 2440.330078 481.802002 C 2425.77002 475.082031 2410.090088 471.161987 2393.850098 471.161987 C 2372.570068 471.161987 2355.209961 476.202026 2341.209961 486.281982 C 2327.77002 496.362 2317.129883 509.802002 2310.409912 526.60199 C 2303.689941 543.401978 2300.330078 561.882019 2300.330078 582.041992 C 2300.330078 601.642029 2303.689941 619.562012 2310.409912 636.921997 C 2316.570068 653.721985 2326.649902 667.721985 2340.090088 678.362 C 2354.090088 689.002014 2371.449951 694.041992 2393.290039 694.041992 Z M 2589.570068 830.682007 C 2600.77002 818.362 2609.72998 806.60199 2616.449951 794.84198 C 2623.72998 783.08197 2628.77002 770.202026 2632.129883 756.202026 C 2635.48999 741.642029 2636.610107 724.84198 2636.610107 705.242004 L 2637.169922 443.721985 L 2673.01001 442.60199 L 2672.449951 711.401978 C 2673.01001 739.401978 2669.090088 762.921997 2661.25 781.961975 C 2653.409912 801.002014 2643.330078 816.682007 2630.449951 829.002014 L 2589.570068 830.682007 Z M 2653.409912 374.281982 C 2645.01001 374.281982 2638.290039 372.041992 2632.689941 367.002014 C 2627.090088 361.962036 2624.290039 354.122009 2624.290039 343.481995 C 2624.290039 333.401978 2627.090088 325.562012 2632.689941 320.521973 C 2638.290039 315.481995 2645.01001 312.682007 2653.969971 312.682007 C 2662.929932 312.682007 2670.209961 315.481995 2675.810059 320.521973 C 2681.409912 326.122009 2683.649902 333.401978 2683.649902 343.481995 C 2683.649902 354.122009 2681.409912 361.962036 2675.810059 367.002014 C 2670.209961 372.041992 2662.929932 374.281982 2653.409912 374.281982 Z M 2858.090088 727.083008 C 2825.610107 727.083008 2798.72998 720.922974 2777.449951 708.04303 C 2756.169922 695.723022 2740.48999 678.362976 2730.409912 655.963013 C 2719.77002 634.122986 2714.72998 608.922974 2714.72998 580.922974 C 2714.72998 552.922974 2719.77002 528.28302 2730.409912 507.002991 C 2740.48999 485.723022 2755.050049 468.363037 2774.090088 456.042969 C 2793.129883 443.723022 2815.530029 437.562988 2841.850098 437.562988 C 2876.01001 437.562988 2902.889893 448.203003 2923.050049 468.363037 C 2942.649902 489.083008 2952.72998 518.203003 2952.72998 556.28302 C 2952.72998 569.723022 2952.169922 580.922974 2950.48999 591.002991 L 2751.689941 591.002991 C 2753.370117 622.922974 2762.889893 648.122986 2780.810059 666.603027 C 2798.72998 685.083008 2825.050049 694.603027 2860.889893 694.603027 C 2874.330078 694.603027 2888.889893 692.922974 2903.449951 689.562988 C 2918.570068 686.203003 2932.570068 681.163025 2945.449951 673.882996 L 2947.689941 708.04303 C 2937.050049 713.643005 2923.610107 718.682983 2907.929932 722.04303 C 2892.25 725.403015 2876.01001 727.083008 2858.090088 727.083008 Z M 2842.409912 468.363037 C 2816.090088 468.363037 2794.810059 477.322998 2779.129883 495.243042 C 2763.449951 512.603027 2754.48999 535.562988 2752.25 563.562988 L 2919.689941 562.442993 L 2919.689941 555.723022 C 2919.689941 526.603027 2912.409912 504.763 2897.850098 490.203003 C 2883.850098 475.643005 2865.370117 468.363037 2842.409912 468.363037 Z M 2992.77002 721.482971 L 2992.209961 443.723022 L 3024.689941 441.483032 L 3025.810059 493.562988 L 3030.290039 494.122986 C 3035.889893 485.723022 3043.72998 477.322998 3053.25 468.363037 C 3062.209961 459.963013 3073.409912 452.682983 3086.290039 446.52301 C 3099.72998 440.922974 3114.290039 437.562988 3131.649902 437.562988 C 3161.330078 437.562988 3183.169922 446.52301 3196.610107 463.322998 C 3210.050049 480.682983 3216.209961 505.322998 3216.209961 537.242981 L 3216.77002 721.482971 L 3180.370117 721.482971 L 3180.370117 545.083008 C 3180.370117 521.002991 3175.889893 503.083008 3167.48999 490.763 C 3159.090088 478.442993 3143.409912 472.843018 3121.01001 472.843018 C 3100.290039 472.843018 3082.370117 478.442993 3067.25 490.763 C 3052.129883 502.52301 3039.25 517.083008 3028.610107 533.882996 L 3028.610107 721.482971 L 2992.77002 721.482971 Z M 3273.610107 721.482971 L 3273.050049 311.562988 L 3309.449951 306.52301 L 3309.449951 566.922974 L 3326.810059 566.922974 L 3370.48999 523.802979 C 3383.929932 510.922974 3397.370117 497.483032 3410.810059 484.042969 C 3424.25 470.603027 3437.689941 457.162964 3451.689941 443.723022 L 3497.610107 444.282959 C 3480.810059 460.52301 3464.01001 476.203003 3447.209961 492.442993 C 3430.969971 508.682983 3414.169922 524.922974 3397.929932 540.603027 L 3357.610107 579.802979 L 3404.090088 624.603027 C 3421.449951 640.843018 3490.889893 705.242981 3508.25 721.482971 L 3458.969971 721.482971 C 3444.969971 708.603027 3431.530029 695.163025 3417.530029 682.28302 C 3403.530029 669.403015 3389.530029 656.52301 3376.090088 643.643005 L 3323.449951 594.362976 L 3309.449951 594.362976 L 3309.449951 721.482971 L 3273.050049 721.482971 L 3273.610107 721.482971 Z M 3533.72998 721.482971 L 3533.169922 443.723022 L 3569.570068 442.603027 L 3569.01001 721.482971 L 3533.169922 721.482971 L 3533.72998 721.482971 Z M 3551.090088 374.282959 C 3542.129883 374.282959 3535.409912 372.042969 3529.810059 366.442993 C 3524.209961 361.403015 3521.409912 354.122986 3521.409912 343.483032 C 3521.409912 333.403015 3524.209961 325.562988 3529.810059 320.52301 C 3535.409912 315.483032 3542.689941 312.682983 3551.649902 312.682983 C 3560.050049 312.682983 3567.330078 315.483032 3572.929932 320.52301 C 3578.530029 326.122986 3580.77002 333.403015 3580.77002 343.483032 C 3580.77002 354.122986 3578.530029 361.403015 3572.929932 366.442993 C 3567.330078 372.042969 3560.050049 374.282959 3550.530029 374.282959 L 3551.090088 374.282959 Z M 3634.530029 721.482971 L 3633.969971 443.723022 L 3666.449951 441.483032 L 3667.570068 493.562988 L 3672.050049 494.122986 C 3677.649902 485.723022 3685.48999 477.322998 3695.01001 468.363037 C 3703.969971 459.963013 3715.169922 452.682983 3728.050049 446.52301 C 3741.48999 440.922974 3756.050049 437.562988 3773.409912 437.562988 C 3803.090088 437.562988 3824.929932 446.52301 3838.370117 463.322998 C 3851.810059 480.682983 3857.969971 505.322998 3857.969971 537.242981 L 3858.530029 721.482971 L 3822.129883 721.482971 L 3822.129883 545.083008 C 3822.129883 521.002991 3817.649902 503.083008 3809.25 490.763 C 3800.850098 478.442993 3785.169922 472.843018 3762.77002 472.843018 C 3742.050049 472.843018 3724.129883 478.442993 3709.01001 490.763 C 3693.889893 502.52301 3681.01001 517.083008 3670.370117 533.882996 L 3670.370117 721.482971 L 3634.530029 721.482971 Z M 3990.409912 727.083008 C 3973.610107 727.083008 3956.810059 724.843018 3940.01001 720.922974 C 3923.209961 717.002991 3908.649902 711.963013 3896.889893 705.802979 L 3900.25 671.083008 C 3913.129883 678.362976 3927.129883 683.963013 3942.810059 688.442993 C 3957.929932 692.922974 3973.610107 694.603027 3989.850098 694.603027 C 4001.050049 694.603027 4011.129883 693.482971 4020.649902 690.682983 C 4030.169922 687.882996 4038.01001 683.403015 4043.610107 676.122986 C 4049.209961 668.843018 4052.01001 658.203003 4052.01001 644.763 C 4052.01001 636.362976 4049.77002 629.083008 4044.72998 623.482971 C 4040.25 617.882996 4032.409912 612.843018 4021.209961 608.362976 C 4010.01001 603.882996 3994.889893 598.843018 3975.850098 593.242981 C 3961.850098 588.763 3948.969971 583.723022 3937.209961 578.122986 C 3925.449951 572.52301 3916.48999 564.682983 3909.77002 554.603027 C 3903.050049 545.083008 3899.129883 532.203003 3899.129883 515.963013 C 3899.689941 492.442993 3907.530029 473.403015 3923.209961 458.843018 C 3938.889893 444.843018 3960.72998 437.562988 3987.610107 437.562988 C 4003.850098 437.562988 4019.530029 439.802979 4034.649902 444.282959 C 4049.209961 448.203003 4061.530029 453.243042 4071.610107 458.843018 L 4068.25 494.122986 C 4054.810059 485.162964 4040.810059 479.002991 4026.810059 475.643005 C 4013.370117 472.282959 4001.050049 470.042969 3990.969971 470.042969 C 3983.129883 470.603027 3974.72998 471.723022 3966.330078 473.963013 C 3957.929932 476.203003 3951.209961 480.682983 3945.050049 486.843018 C 3939.449951 493.562988 3936.090088 502.52301 3936.090088 514.843018 C 3936.090088 528.28302 3941.129883 538.362976 3950.090088 545.083008 C 3959.610107 551.802979 3975.850098 559.083008 3999.929932 565.802979 C 4017.850098 571.403015 4033.530029 577.002991 4046.969971 582.603027 C 4060.409912 588.203003 4070.48999 596.04303 4077.77002 605.562988 C 4085.050049 615.083008 4088.409912 627.963013 4088.409912 644.763 C 4088.409912 667.723022 4081.129883 687.322998 4065.449951 703.002991 C 4050.330078 719.242981 4025.129883 727.083008 3990.409912 727.083008 Z"/>
    <path id="path4" fill="none" stroke="none" d="M 0 0 L 4128 0 L 4128 1028 L 0 1028 Z"/>
</svg>
